<?xml version="1.0" standalone="no"?><!DOCTYPE svg PUBLIC "-//W3C//DTD SVG 1.1//EN" "http://www.w3.org/Graphics/SVG/1.1/DTD/svg11.dtd"><svg t="1766564990553" class="icon" viewBox="0 0 1024 1024" version="1.1" xmlns="http://www.w3.org/2000/svg" p-id="1020" xmlns:xlink="http://www.w3.org/1999/xlink" width="200" height="200"><path d="M925.896 886.711v18.298C925.896 992 775.912 992 604.33 992H413.61c-179.68 0-321.566 0-321.566-86.99V886.71c0-164.682 132.286-281.37 309.568-281.37h214.777c176.921 0 309.507 116.688 309.507 281.37zM763.613 272.136A247.774 247.774 0 0 1 508.94 512.111a248.074 248.074 0 0 1-254.913-240.035A248.074 248.074 0 0 1 509 32.101a248.074 248.074 0 0 1 254.673 239.975z" p-id="1021"></path></svg>