<?xml version="1.0" standalone="no"?><!DOCTYPE svg PUBLIC "-//W3C//DTD SVG 1.1//EN" "http://www.w3.org/Graphics/SVG/1.1/DTD/svg11.dtd"><svg t="1766387338338" class="icon" viewBox="0 0 1024 1024" version="1.1" xmlns="http://www.w3.org/2000/svg" p-id="1043" xmlns:xlink="http://www.w3.org/1999/xlink" width="200" height="200"><path d="M525.311744 0.000975a129.804067 129.804067 0 0 1 129.804067 132.144636c0.097524 6.972946 1.560379 13.848368 4.291043 20.18741l3.169521 6.192756 0.048762 0.146285a56.319946 56.319946 0 0 0 77.092498 19.992362l18.041887 30.622447-17.651792-30.817494a129.852829 129.852829 0 0 1 177.103069 47.786621l30.329876 52.662807c0.975237 1.755427 1.804189 3.559616 2.486855 5.363804a129.706543 129.706543 0 0 1-49.639572 171.739265l-18.431983-31.597684 18.188174 31.74397c-8.484563 4.876186-15.506271 11.897893-20.333695 20.333695l-0.146286 0.243809a56.271185 56.271185 0 0 0 20.479981 77.092498 129.413972 129.413972 0 0 1 47.299002 177.346879l-0.243809 0.390095-31.890255 53.101663h0.048761a129.901591 129.901591 0 0 1-177.005545 47.299003l-6.436566-3.169521a58.465468 58.465468 0 0 0-20.431218-4.486091 56.319946 56.319946 0 0 0-56.319947 56.563756l-36.571393 0.146285 36.571393 0.146286a129.852829 129.852829 0 0 1-129.852828 129.218925H464.164373a129.852829 129.852829 0 0 1-129.852828-129.462734 52.662807 52.662807 0 0 0-7.363041-26.331404l-0.292571-0.487618a55.832328 55.832328 0 0 0-76.556118-20.479981l-18.431982-31.597684 17.84684 31.890255a129.852829 129.852829 0 0 1-176.712975-49.737095l-30.768732-53.101664 31.597684-18.334459-31.695208 18.285697a129.413972 129.413972 0 0 1 47.299003-176.712974 56.758803 56.758803 0 0 0 0-98.206383l18.334458-31.695208-18.38322 31.646446a129.901591 129.901591 0 0 1-47.299003-177.103069l0.487619-0.731428 32.621683-53.589282a129.852829 129.852829 0 0 1 176.615451-47.055194l-18.188173 31.695208 18.675792-31.451398c7.899421 4.7299 16.969127 7.216755 26.185117 7.314278A56.661279 56.661279 0 0 0 334.409068 135.071323l0.390095-5.753899A129.36521 129.36521 0 0 1 464.164373 0.000975h61.147371z m-334.506348 505.221614c0 46.372527-24.819786 89.234201-64.950796 112.396084a56.319946 56.319946 0 0 0-20.577504 76.799927l30.817495 53.150425 0.292571 0.585142a56.758803 56.758803 0 0 0 72.362597 24.478453l4.97371-2.486854a128.975115 128.975115 0 0 1 176.469165 47.640335c11.117704 18.968363 17.06665 40.472342 17.261698 62.415179l-36.571394 0.390095h36.571394c0 31.305113 25.356166 56.661279 56.710041 56.710041h61.147371c31.207589 0 56.563756-25.209881 56.710041-56.466232a129.413972 129.413972 0 0 1 130.047876-129.657781h0.828952c21.699027 0.585142 42.910435 6.534089 61.781274 17.310459l-18.139411 31.74397 18.236935-31.695208c27.062831 15.603795 61.634989 6.387803 77.336307-20.577504l30.817495 17.895602-30.573686-18.334459 31.890256-53.150425a56.319946 56.319946 0 0 0-20.528743-77.14126 129.413972 129.413972 0 0 1-53.199187-165.83908l5.851423-11.459037c11.312751-19.553505 27.55045-35.791204 47.152717-47.055193l4.778662-3.169521c23.064359-16.774079 30.232352-48.566811 15.798842-73.874215l31.792732-18.188174h-0.78019l-30.96378 17.846841-30.329876-52.662807a56.758803 56.758803 0 0 0-76.994974-21.162647 129.36521 129.36521 0 0 1-177.298117-45.982432 126.049404 126.049404 0 0 1-17.505507-62.756512l36.571394-0.390095-36.522632-1.072761A56.710041 56.710041 0 0 0 525.360506 73.143763H464.164373a56.271185 56.271185 0 0 0-56.222422 56.563755l-36.571394 0.146286 36.571394 0.487619A129.901591 129.901591 0 0 1 278.089122 258.438824H277.650265a125.903118 125.903118 0 0 1-62.415178-17.359221l-5.217519-2.584379a56.710041 56.710041 0 0 0-72.167551 23.454454l-0.487618 0.78019-32.28035 53.150425a56.758803 56.758803 0 0 0 20.723789 76.946213 129.901591 129.901591 0 0 1 64.950796 112.444845z" p-id="1044"></path><path d="M586.946733 505.173827a92.013627 92.013627 0 1 0-183.978492 0.097524 92.013627 92.013627 0 0 0 183.978492-0.048762z m73.142787 0a165.156414 165.156414 0 1 1-330.312828 0 165.156414 165.156414 0 0 1 330.312828 0z" p-id="1045"></path></svg>